<svg xmlns="http://www.w3.org/2000/svg" width="1203.303" height="889.655" viewBox="0 0 1203.303 889.655"><defs><style>.a,.f{fill:#f2f2f2;}.b{fill:#2f2e41;}.c{fill:#3f3d56;}.d{fill:#ff6584;}.e{fill:#8b7be8;}.f{opacity:0.2;}.g{fill:#ffb9b9;}.h{opacity:0.1;}</style></defs><path class="a" d="M742.737,170.038v445a19.949,19.949,0,0,1-19.949,19.949H81.6a14.062,14.062,0,0,1-14.062-14.062V225a90.535,90.535,0,0,1,90.535-90.535H707.162a35.575,35.575,0,0,1,35.575,35.575Z" transform="translate(-34.117 -26.369)"/><path class="b" d="M504.615,521.977a231.594,231.594,0,0,1-23.8,102.611H81.6a14.062,14.062,0,0,1-14.062-14.062V410.875a232.649,232.649,0,0,1,437.078,111.1Z" transform="translate(-34.117 -15.97)"/><path class="c" d="M742.786,479.274v119.79a19.949,19.949,0,0,1-19.949,19.949H80.765A13.961,13.961,0,0,1,66.8,605.057v-.142c0-99.776,310.333-184.88,398.571-217.928a232.921,232.921,0,0,1,277.411,92.288Z" transform="translate(-34.167 -10.395)"/><circle class="d" cx="57.964" cy="57.964" r="57.964" transform="translate(544.911 187.207)"/><path class="e" d="M336.483,291.544c0,113.066-67.216,152.544-150.131,152.544S36.221,404.61,36.221,291.544s150.131-256.9,150.131-256.9S336.483,178.478,336.483,291.544Z" transform="translate(-36.221 -33.074)"/><path class="c" d="M139.354,393.62l1.538-94.626,63.989-117.066L141.132,284.15l.692-42.547,44.1-84.7-43.917,73.437h0l1.242-76.524L190.475,86.39l-47.029,55.395.777-140.317L139.34,187.224l.4-7.663L91.728,106.068l47.244,88.2L134.5,279.735l-.133-2.269-55.351-77.34L134.2,285.48l-.559,10.688-.1.161.046.877-11.35,216.829H137.4l1.82-112,55.048-85.145Z" transform="translate(5.308 0.099)"/><path class="e" d="M562.164,239.824c0,90.949-54.068,122.706-120.765,122.706S320.635,330.774,320.635,239.824,441.4,33.173,441.4,33.173,562.164,148.875,562.164,239.824Z" transform="translate(-17.116 -33.173)"/><path class="c" d="M396.509,315.445l1.237-76.117,51.473-94.166L397.94,227.388l.556-34.225,35.475-68.129-35.328,59.072h0l1-61.556,37.987-54.239-37.83,44.56L400.426,0,396.5,149.42l.323-6.164L358.2,84.139l38,70.95-3.6,68.746-.107-1.825L347.972,159.8l44.389,68.659-.449,8.6-.081.129.037.706-9.131,174.416h12.2l1.463-90.089,44.281-68.49Z" transform="translate(23.375 0)"/><path class="e" d="M790.326,355.8c0,61.231-36.4,82.61-81.3,82.61s-81.3-21.379-81.3-82.61,81.3-139.125,81.3-139.125S790.326,294.565,790.326,355.8Z" transform="translate(3.512 -20.846)"/><path class="c" d="M666.966,395.866l.832-51.244,34.653-63.4L667.93,336.583l.373-23.042,23.883-45.866L668.4,307.444h0L669.076,266l25.575-36.516-25.469,30L669.6,183.5l-2.644,100.6.218-4.149-26-39.8,25.584,47.767-2.423,46.282-.073-1.228L634.289,291.08,664.173,337.3l-.3,5.787-.053.088.024.475-6.147,117.423h8.213l.985-60.651,29.812-46.11Z" transform="translate(42.608 12.326)"/><path class="e" d="M219.527,454.022c-3.6,5.74-8.267,5.6-12.476,2.966s-6.365-6.782-2.767-12.521,15.8-8.264,15.8-8.264S223.125,448.281,219.527,454.022Z" transform="translate(-25.054 -6.1)"/><path class="e" d="M114.566,468.7c-3.6,5.74-8.267,5.6-12.476,2.966s-6.365-6.782-2.767-12.521,15.8-8.264,15.8-8.264S118.165,462.961,114.566,468.7Z" transform="translate(-32.105 -5.113)"/><path class="e" d="M486.712,442.616c.666,6.741-3.109,9.491-8.053,9.979s-9.184-1.47-9.85-8.211,7.439-16.2,7.439-16.2S486.046,435.874,486.712,442.616Z" transform="translate(-7.165 -6.638)"/><path class="e" d="M365.591,364.475c-3.6,5.74-8.267,5.6-12.476,2.966s-6.365-6.782-2.767-12.521,15.8-8.264,15.8-8.264S369.189,358.735,365.591,364.475Z" transform="translate(-15.242 -12.115)"/><path class="e" d="M644.506,447.416c-3.6,5.74-8.267,5.6-12.476,2.966s-6.365-6.782-2.767-12.521,15.8-8.264,15.8-8.264S648.1,441.675,644.506,447.416Z" transform="translate(3.494 -6.543)"/><path class="f" d="M1149.756,559.255c0,188.014-85.365,336.334-190.491,340.429C822.173,905.024,643,768.33,768.775,559.255c96.918-161.108,85.286-340.428,190.491-340.428S1149.756,371.242,1149.756,559.255Z" transform="translate(10.122 -20.702)"/><ellipse class="c" cx="169.681" cy="18.142" rx="169.681" ry="18.142" transform="translate(745.816 853.371)"/><path class="e" d="M1031.709,639.615c.666,6.741-3.109,9.491-8.053,9.98s-9.184-1.47-9.85-8.211,7.439-16.2,7.439-16.2S1031.048,632.874,1031.709,639.615Z" transform="translate(29.445 6.595)"/><path class="e" d="M966.566,621.7c-3.6,5.74-8.267,5.6-12.476,2.966s-6.365-6.782-2.767-12.521,15.8-8.264,15.8-8.264S970.165,615.961,966.566,621.7Z" transform="translate(25.128 5.164)"/><path class="g" d="M965.378,765.946s8.035,34.963,20.552,42.5-30.55,21.825-30.55,21.825-18.744,11.62-23.612,15.822-25.734,13.191-22.294,6.515,9.481-19.372,19.022-29.921,22.084-29.431,11.157-44.138S965.378,765.946,965.378,765.946Z" transform="translate(22.413 16.044)"/><path class="d" d="M925.218,367.466l-4.212-1.5s-10.83-1.5-20.757,11.131-32.64,50.991-32.64,50.991l-8.423,19.855,29.782.9L911.38,399.5Z" transform="translate(19.061 -10.822)"/><path class="h" d="M925.218,367.466l-4.212-1.5s-10.83-1.5-20.757,11.131-32.64,50.991-32.64,50.991l-8.423,19.855,29.782.9L911.38,399.5Z" transform="translate(19.061 -10.822)"/><path class="b" d="M918.538,653.632s17,3.76,14.139,16.846,17.749,30.083,19.7,32.941,4.813,4.061,3.008,8.423,41.966,65.882,33.242,71.448S909.213,810.666,902.9,806.3,891.463,659.2,891.463,659.2Z" transform="translate(21.229 8.506)"/><path class="h" d="M918.538,653.632s17,3.76,14.139,16.846,17.749,30.083,19.7,32.941,4.813,4.061,3.008,8.423,41.966,65.882,33.242,71.448S909.213,810.666,902.9,806.3,891.463,659.2,891.463,659.2Z" transform="translate(21.229 8.506)"/><path class="g" d="M886.455,799.692s-10.529,34.295-3.46,47.08-37.37,3.619-37.37,3.619-22.042.687-28.36,1.891-28.881-1.448-22.564-5.51,17.9-12.033,31.437-16.4,33.843-14.44,31.738-32.64S886.455,799.692,886.455,799.692Z" transform="translate(14.655 17.675)"/><path class="b" d="M863.508,478.26a33.152,33.152,0,0,1,20.005-6.167c11.582.451,49.487,9.476,48.434,11.281a38.01,38.01,0,0,1-3.46,4.512s2.407,10.98,1.354,12.033,20.607,25.872,7.972,79.119-11.281,90.1-11.281,90.1,5.114,156.132-9.476,159.289-72.049,1.053-74.757-5.114,8.273-197.646,8.273-197.646,1.2-96.266,4.061-108S863.508,478.26,863.508,478.26Z" transform="translate(17.898 -3.689)"/><circle class="g" cx="36.25" cy="36.25" r="36.25" transform="translate(911.414 266.169)"/><path class="g" d="M919.645,340.022s22.412,21.961-5.265,38.958c-19.488,11.968,47.08-9.326,47.08-9.326s-13.839-35.348-11.732-43.47S919.645,340.022,919.645,340.022Z" transform="translate(22.528 -13.611)"/><path class="d" d="M928.072,371.82s31.136-14.289,36.25-9.175,27.225,26.172,3.159,63.475-28.729,65.28-32.791,68.439-6.618-4.061-6.618-4.061-11.732-10.68-19.4-10.68-40.462,3.61-40.462,3.61l9.175-36.4s-4.512-28.729,10.83-43.019S920.4,366.255,920.4,366.255l8.688-1.587-5.737,7.306S922.507,374.227,928.072,371.82Z" transform="translate(19.667 -11.115)"/><path class="e" d="M1005.157,611.657C942.3,588.7,934,543.312,950.832,497.214s52.434-75.452,115.3-52.494,112.347,135.635,112.347,135.635S1068.014,634.617,1005.157,611.657Z" transform="translate(24.707 -6.064)"/><path class="c" d="M928.371,462.814l52.3,20.069,52.092,59.348-43.887-56.2,23.515,9.024,38.13,41.717-31.909-39.329h0l42.292,16.23,27.9,39.948-21.247-37.4,77.861,28.925-102.289-40.433,4.183,1.779,50.605-11.771-58.63,8.356L992.675,483.24l1.288.386,54.239-15.07-58.66,13.349-5.829-2.481-.069-.089-.5-.153L864.9,428.845l-3.08,8.431,61.9,23.753,36.16,47.895Z" transform="translate(57.892 28.807)"/><path class="g" d="M857.688,446.105s-13.387,18.05-4.512,24.819S880.7,466.11,880.7,466.11s43.019,29.933,42.417,12.334-31.437-29.782-31.437-29.782l-20.757.6,3.159-10.379-8.724-.9Z" transform="translate(18.453 -5.98)"/><path class="h" d="M857.688,446.105s-13.387,18.05-4.512,24.819S880.7,466.11,880.7,466.11s43.019,29.933,42.417,12.334-31.437-29.782-31.437-29.782l-20.757.6,3.159-10.379-8.724-.9Z" transform="translate(18.453 -5.98)"/><path class="g" d="M947.127,418.4s-84.534,65.13-89.949,42.267c-3.519-14.859-.812-51.446,1.515-75.242a73.748,73.748,0,0,1,21.844-45.676c5.072-4.941,9.776-8.041,12.14-5.731,6.618,6.468-15.493,32.339-15.493,32.339s-3.61,52.5,3.61,58.512c0,0,26.157-25.257,31.58-24.887S947.127,418.4,947.127,418.4Z" transform="translate(18.812 -13.016)"/><path class="b" d="M1000.552,353.288c-6.925-10.424-12.642-27.19-18.812-41.956-2-4.786-3.826-9.634-5.615-14.5-3.605-9.812-19.3-22.478-39.856-22.478-23.494,0-42.54,11.823-42.54,21.743,0,8.2,13.024,15.114,30.812,17.264-6.249,13.949-10.014,29.43-10.014,39.928,0,23.755,19.257,13.707,43.013,13.707S1013.7,373.074,1000.552,353.288Z" transform="translate(21.381 -16.972)"/><path class="d" d="M961.842,375.492s15.042,38.356-18.8,47.08c0,0-6.618-9.175-17.448-10.68s-20.457-12.785-20.457-12.785,22.111-31.136,39.409-31.738S961.842,375.492,961.842,375.492Z" transform="translate(22.147 -10.725)"/></svg>