<?xml version="1.0" encoding="utf-8"?>
<!-- Generator: Adobe Illustrator 19.0.0, SVG Export Plug-In . SVG Version: 6.00 Build 0)  -->
<svg version="1.1" id="Layer_1" xmlns="http://www.w3.org/2000/svg" xmlns:xlink="http://www.w3.org/1999/xlink" x="0px" y="0px"
	 viewBox="-429 218 100 125" style="enable-background:new -429 218 100 125;" xml:space="preserve">
<path d="M-413.4,288.4c-0.4-0.4-0.6-0.9-0.6-1.4s0.2-1,0.6-1.4c0.8-0.8,2.1-0.8,2.8,0c0.4,0.4,0.6,0.9,0.6,1.4s-0.2,1-0.6,1.4
	c-0.4,0.4-0.9,0.6-1.4,0.6c-0.3,0-0.5,0-0.8-0.1C-413,288.8-413.2,288.6-413.4,288.4z M-412.8,296.9c0.3,0.1,0.5,0.1,0.8,0.1
	s0.5,0,0.8-0.1c0.2-0.1,0.5-0.3,0.6-0.4c0.4-0.4,0.6-0.9,0.6-1.4s-0.2-1-0.6-1.4c-0.1-0.1-0.2-0.2-0.3-0.3c-0.1-0.1-0.2-0.1-0.3-0.2
	c-0.1-0.1-0.3-0.1-0.4-0.1c-0.3,0-0.5,0-0.8,0c-0.1,0-0.3,0.1-0.4,0.1c-0.1,0.1-0.2,0.1-0.3,0.2c-0.1,0.1-0.2,0.1-0.3,0.3
	c-0.4,0.4-0.6,0.9-0.6,1.4s0.2,1,0.6,1.4C-413.2,296.6-413,296.8-412.8,296.9z M-413.4,304.4c0.4,0.4,0.9,0.6,1.4,0.6
	c0.1,0,0.3,0,0.4,0c0.1,0,0.3-0.1,0.4-0.1c0.1-0.1,0.2-0.1,0.3-0.2c0.1-0.1,0.2-0.1,0.3-0.3c0.4-0.4,0.6-0.9,0.6-1.4
	c0-0.1,0-0.3,0-0.4c0-0.1-0.1-0.3-0.1-0.4c-0.1-0.1-0.1-0.2-0.2-0.3c-0.1-0.1-0.1-0.2-0.2-0.3c-0.1-0.1-0.2-0.2-0.3-0.3
	c-0.1-0.1-0.2-0.1-0.3-0.2c-0.1,0-0.3-0.1-0.4-0.1c-0.3-0.1-0.5-0.1-0.8,0c-0.1,0-0.3,0.1-0.4,0.1c-0.1,0.1-0.2,0.1-0.3,0.2
	c-0.1,0.1-0.2,0.1-0.3,0.3c-0.1,0.1-0.2,0.2-0.3,0.3c-0.1,0.1-0.1,0.2-0.2,0.3c0,0.1-0.1,0.3-0.1,0.4c0,0.1,0,0.3,0,0.4
	c0,0.3,0,0.5,0.1,0.8C-413.8,304-413.6,304.2-413.4,304.4z M-382,251c0.1,0,0.3,0,0.4,0c0.1,0,0.3-0.1,0.4-0.1
	c0.1-0.1,0.2-0.1,0.3-0.2c0.1-0.1,0.2-0.2,0.3-0.3c0.4-0.4,0.6-0.9,0.6-1.4s-0.2-1-0.6-1.4c-0.1-0.1-0.2-0.2-0.3-0.3
	c-0.1-0.1-0.2-0.1-0.3-0.2c-0.1,0-0.3-0.1-0.4-0.1c-0.7-0.1-1.3,0.1-1.8,0.6c-0.4,0.4-0.6,0.9-0.6,1.4s0.2,1,0.6,1.4
	C-383,250.8-382.5,251-382,251z M-375.9,249.8c0.1,0.1,0.1,0.2,0.2,0.3c0.1,0.1,0.1,0.2,0.3,0.3c0.4,0.4,0.9,0.6,1.4,0.6
	s1-0.2,1.4-0.6c0.1-0.1,0.2-0.2,0.3-0.3s0.1-0.2,0.2-0.3c0-0.1,0.1-0.3,0.1-0.4c0-0.1,0-0.3,0-0.4s0-0.3,0-0.4
	c0-0.1-0.1-0.3-0.1-0.4c-0.1-0.1-0.1-0.2-0.2-0.3s-0.1-0.2-0.3-0.3c-0.1-0.1-0.2-0.2-0.3-0.3c-0.1-0.1-0.2-0.1-0.3-0.2
	c-0.1,0-0.3-0.1-0.4-0.1c-0.7-0.1-1.3,0.1-1.8,0.5c-0.4,0.4-0.6,0.9-0.6,1.4c0,0.1,0,0.3,0,0.4
	C-375.9,249.5-375.9,249.6-375.9,249.8z M-382,259c0.1,0,0.3,0,0.4,0c0.1,0,0.3-0.1,0.4-0.1c0.1-0.1,0.2-0.1,0.3-0.2
	c0.1-0.1,0.2-0.1,0.3-0.3c0.4-0.4,0.6-0.9,0.6-1.4s-0.2-1-0.6-1.4c-0.1-0.1-0.2-0.2-0.3-0.2c-0.1-0.1-0.2-0.1-0.3-0.2
	c-0.1,0-0.3-0.1-0.4-0.1c-0.7-0.1-1.3,0.1-1.8,0.5c-0.4,0.4-0.6,0.9-0.6,1.4s0.2,1,0.6,1.4C-383,258.8-382.5,259-382,259z
	 M-375.9,257.8c0.1,0.1,0.1,0.2,0.2,0.3c0.1,0.1,0.1,0.2,0.3,0.3c0.4,0.4,0.9,0.6,1.4,0.6s1-0.2,1.4-0.6c0.4-0.4,0.6-0.9,0.6-1.4
	s-0.2-1-0.6-1.4c-0.7-0.8-2.1-0.8-2.8,0c-0.1,0.1-0.2,0.2-0.3,0.3c-0.1,0.1-0.1,0.2-0.2,0.3c0,0.1-0.1,0.3-0.1,0.4
	c0,0.1,0,0.3,0,0.4s0,0.3,0,0.4C-375.9,257.5-375.9,257.6-375.9,257.8z M-383.9,265.8c0.1,0.1,0.1,0.2,0.2,0.3
	c0.1,0.1,0.1,0.2,0.2,0.3c0.4,0.4,0.9,0.6,1.4,0.6c0.1,0,0.3,0,0.4,0c0.1,0,0.3-0.1,0.4-0.1c0.1-0.1,0.2-0.1,0.3-0.2
	c0.1-0.1,0.2-0.1,0.3-0.3c0.1-0.1,0.2-0.2,0.3-0.3c0.1-0.1,0.1-0.2,0.2-0.3c0-0.1,0.1-0.3,0.1-0.4c0-0.1,0-0.3,0-0.4
	c0-0.5-0.2-1-0.6-1.4c-0.1-0.1-0.2-0.2-0.3-0.2c-0.1-0.1-0.2-0.1-0.3-0.2c-0.1,0-0.3-0.1-0.4-0.1c-0.7-0.1-1.3,0.1-1.8,0.5
	c-0.4,0.4-0.6,0.9-0.6,1.4c0,0.1,0,0.3,0,0.4C-383.9,265.5-383.9,265.6-383.9,265.8z M-374,267c0.1,0,0.3,0,0.4,0
	c0.1,0,0.3-0.1,0.4-0.1c0.1-0.1,0.2-0.1,0.3-0.2c0.1-0.1,0.2-0.1,0.3-0.2c0.1-0.1,0.2-0.2,0.3-0.3c0.1-0.1,0.1-0.2,0.2-0.3
	c0-0.1,0.1-0.3,0.1-0.4c0-0.1,0-0.3,0-0.4s0-0.3,0-0.4c0-0.1-0.1-0.3-0.1-0.4c-0.1-0.1-0.1-0.2-0.2-0.3c-0.1-0.1-0.1-0.2-0.3-0.3
	c-0.7-0.7-2.1-0.7-2.8,0c-0.1,0.1-0.2,0.2-0.3,0.3c-0.1,0.1-0.1,0.2-0.2,0.3c0,0.1-0.1,0.3-0.1,0.4c0,0.1,0,0.3,0,0.4
	c0,0.5,0.2,1,0.6,1.4C-375,266.8-374.5,267-374,267z M-382,275c0.5,0,1-0.2,1.4-0.6c0.4-0.4,0.6-0.9,0.6-1.4s-0.2-1-0.6-1.4
	c-0.1-0.1-0.2-0.2-0.3-0.3c-0.1-0.1-0.2-0.1-0.3-0.2c-0.1,0-0.3-0.1-0.4-0.1c-0.3-0.1-0.5-0.1-0.8,0c-0.1,0-0.3,0.1-0.4,0.1
	c-0.1,0.1-0.2,0.1-0.3,0.2c-0.1,0.1-0.2,0.1-0.3,0.3c-0.4,0.4-0.6,0.9-0.6,1.4s0.2,1,0.6,1.4C-383,274.8-382.5,275-382,275z
	 M-374,275c0.5,0,1-0.2,1.4-0.6c0.4-0.4,0.6-0.9,0.6-1.4s-0.2-1-0.6-1.4c-0.7-0.8-2.1-0.8-2.8,0c-0.4,0.4-0.6,0.9-0.6,1.4
	s0.2,1,0.6,1.4C-375,274.8-374.5,275-374,275z M-383.9,281.8c0.1,0.1,0.1,0.2,0.2,0.3c0.1,0.1,0.2,0.2,0.3,0.3
	c0.2,0.2,0.4,0.3,0.6,0.4c0.3,0.1,0.5,0.1,0.8,0.1c0.5,0,1-0.2,1.4-0.6c0.1-0.1,0.2-0.2,0.3-0.3c0.1-0.1,0.1-0.2,0.2-0.3
	c0-0.1,0.1-0.3,0.1-0.4c0-0.1,0-0.3,0-0.4s0-0.3,0-0.4c0-0.1-0.1-0.3-0.1-0.4c-0.1-0.1-0.1-0.2-0.2-0.3c-0.1-0.1-0.1-0.2-0.3-0.3
	c-0.5-0.5-1.1-0.7-1.8-0.5c-0.1,0-0.3,0.1-0.4,0.1c-0.1,0.1-0.2,0.1-0.3,0.2c-0.1,0.1-0.2,0.1-0.3,0.3c-0.1,0.1-0.2,0.2-0.3,0.3
	c-0.1,0.1-0.1,0.2-0.2,0.3c0,0.1-0.1,0.3-0.1,0.4c0,0.1,0,0.3,0,0.4s0,0.3,0,0.4C-383.9,281.5-383.9,281.6-383.9,281.8z
	 M-375.9,281.8c0.1,0.1,0.1,0.2,0.2,0.3c0.1,0.1,0.2,0.2,0.3,0.3c0.1,0.1,0.2,0.2,0.3,0.3c0.1,0.1,0.2,0.1,0.3,0.2
	c0.1,0.1,0.3,0.1,0.4,0.1c0.1,0,0.3,0,0.4,0s0.3,0,0.4,0c0.1,0,0.3-0.1,0.4-0.1c0.1-0.1,0.2-0.1,0.3-0.2c0.1-0.1,0.2-0.2,0.3-0.3
	c0.1-0.1,0.2-0.2,0.3-0.3c0.1-0.1,0.1-0.2,0.2-0.3c0-0.1,0.1-0.3,0.1-0.4c0-0.1,0-0.3,0-0.4s0-0.3,0-0.4c0-0.1-0.1-0.3-0.1-0.4
	c-0.1-0.1-0.1-0.2-0.2-0.3c-0.1-0.1-0.1-0.2-0.3-0.3c-0.7-0.8-2.1-0.8-2.8,0c-0.4,0.4-0.6,0.9-0.6,1.4c0,0.1,0,0.3,0,0.4
	C-375.9,281.5-375.9,281.6-375.9,281.8z M-383.9,289.8c0.1,0.1,0.1,0.2,0.2,0.3c0.1,0.1,0.1,0.2,0.3,0.3c0.2,0.2,0.4,0.3,0.6,0.4
	c0.3,0.1,0.5,0.1,0.8,0.1c0.5,0,1-0.2,1.4-0.6c0.1-0.1,0.2-0.2,0.3-0.3c0.1-0.1,0.1-0.2,0.2-0.3c0-0.1,0.1-0.3,0.1-0.4
	c0-0.1,0-0.3,0-0.4c0-0.5-0.2-1-0.6-1.4c-0.5-0.5-1.1-0.7-1.8-0.6c-0.1,0-0.3,0.1-0.4,0.1c-0.1,0.1-0.2,0.1-0.3,0.2
	c-0.1,0.1-0.2,0.1-0.3,0.3c-0.4,0.4-0.6,0.9-0.6,1.4c0,0.1,0,0.3,0,0.4C-383.9,289.5-383.9,289.6-383.9,289.8z M-375.9,289.8
	c0.1,0.1,0.1,0.2,0.2,0.3c0.1,0.1,0.2,0.2,0.3,0.3c0.2,0.2,0.4,0.3,0.6,0.4c0.3,0.1,0.5,0.1,0.8,0.1c0.5,0,1-0.2,1.4-0.6
	c0.1-0.1,0.2-0.2,0.3-0.3c0.1-0.1,0.1-0.2,0.2-0.3c0-0.1,0.1-0.3,0.1-0.4c0-0.1,0-0.3,0-0.4c0-0.5-0.2-1-0.6-1.4
	c-0.1-0.1-0.2-0.2-0.3-0.3c-0.1-0.1-0.2-0.1-0.3-0.2c-0.1-0.1-0.2-0.1-0.4-0.1c-0.3,0-0.5,0-0.8,0c-0.1,0-0.3,0.1-0.4,0.1
	s-0.2,0.1-0.3,0.2c-0.1,0.1-0.2,0.1-0.3,0.3c-0.4,0.4-0.6,0.9-0.6,1.4c0,0.1,0,0.3,0,0.4C-375.9,289.5-375.9,289.6-375.9,289.8z
	 M-336,242v69c0,1.1-0.9,2-2,2h-82c-1.1,0-2-0.9-2-2v-44c0-1.1,0.9-2,2-2h10v-10c0-1.1,0.9-2,2-2h16v-12c0-1.1,0.9-2,2-2h2v-6
	c0-1.1,0.9-2,2-2h6v-6c0-1.1,0.9-2,2-2s2,0.9,2,2v6h6c1.1,0,2,0.9,2,2v6h2c1.1,0,2,0.9,2,2v44h4v-26c0-0.6,0.3-1.1,0.7-1.5l20-17
	c0.6-0.5,1.4-0.6,2.1-0.3C-336.5,240.5-336,241.2-336,242z M-406,281h-12v28h12V281z M-406,269h-12v8h12V269z M-392,257h-14v8h2
	c1.1,0,2,0.9,2,2v42h10V257z M-384,239h12v-4h-12V239z M-368,243h-20v66h20V243z M-340,289h-24v20h24V289z M-340,246.3l-16,13.6V285
	h16V246.3z"/>
</svg>
