<svg xmlns="http://www.w3.org/2000/svg" width="25.527" height="31.43" viewBox="0 0 25.527 31.43"><defs><style>.a{fill:#dc5f64;}</style></defs><g transform="translate(0)"><path class="a" d="M223.134,154.7a.736.736,0,0,0-.736.736v13.911a.736.736,0,1,0,1.472,0V155.439A.736.736,0,0,0,223.134,154.7Zm0,0" transform="translate(-206.028 -143.316)"/><path class="a" d="M105.134,154.7a.736.736,0,0,0-.736.736v13.911a.736.736,0,1,0,1.472,0V155.439A.736.736,0,0,0,105.134,154.7Zm0,0" transform="translate(-96.714 -143.316)"/><path class="a" d="M2.087,9.355V27.49a4.061,4.061,0,0,0,1.08,2.8A3.625,3.625,0,0,0,5.8,31.428H19.723a3.624,3.624,0,0,0,2.63-1.137,4.061,4.061,0,0,0,1.08-2.8V9.355a2.812,2.812,0,0,0-.721-5.529H18.943v-.92A2.891,2.891,0,0,0,16.028,0H9.492A2.891,2.891,0,0,0,6.577,2.906v.92H2.809a2.812,2.812,0,0,0-.721,5.529Zm17.636,20.6H5.8A2.331,2.331,0,0,1,3.559,27.49V9.42h18.4V27.49a2.331,2.331,0,0,1-2.237,2.466ZM8.049,2.906A1.418,1.418,0,0,1,9.492,1.471h6.536a1.418,1.418,0,0,1,1.443,1.435v.92s-7.066.23-9.422,0S8.049,2.906,8.049,2.906ZM2.809,5.3h19.9a1.325,1.325,0,0,1,0,2.65H2.809a1.325,1.325,0,1,1,0-2.65Zm0,0" transform="translate(0.003 0.002)"/><path class="a" d="M164.134,154.7a.736.736,0,0,0-.736.736v13.911a.736.736,0,0,0,1.472,0V155.439A.736.736,0,0,0,164.134,154.7Zm0,0" transform="translate(-151.371 -143.316)"/></g></svg>