<svg xmlns="http://www.w3.org/2000/svg" width="29.912" height="29.761" viewBox="0 0 29.912 29.761"><defs><style>.a{fill:#fff;}</style></defs><g transform="translate(0 0)"><path class="a" d="M27.607,54.95a.745.745,0,0,0-.745.745V62.31a2.237,2.237,0,0,1-2.235,2.235H3.725A2.237,2.237,0,0,1,1.49,62.31V42.9a2.237,2.237,0,0,1,2.235-2.235h6.614a.745.745,0,0,0,0-1.49H3.725A3.729,3.729,0,0,0,0,42.9V62.31a3.729,3.729,0,0,0,3.725,3.725h20.9a3.729,3.729,0,0,0,3.725-3.725V55.7a.745.745,0,0,0-.745-.745Zm0,0" transform="translate(0 -36.273)"/><path class="a" d="M128.188,1.243a3.352,3.352,0,0,0-4.741,0l-13.29,13.29a.745.745,0,0,0-.191.328l-1.748,6.31a.745.745,0,0,0,.917.917l6.31-1.748a.745.745,0,0,0,.328-.191l13.29-13.291a3.356,3.356,0,0,0,0-4.741ZM111.779,15.017,122.657,4.14l3.508,3.508L115.287,18.525Zm-.7,1.406,2.8,2.8L110,20.3ZM128.008,5.8l-.79.79L123.71,3.086l.79-.79a1.862,1.862,0,0,1,2.634,0l.874.874A1.865,1.865,0,0,1,128.008,5.8Zm0,0" transform="translate(-100.131 -0.261)"/></g></svg>