<?xml version="1.0" encoding="utf-8"?>
<!-- Generator: Adobe Illustrator 19.0.0, SVG Export Plug-In . SVG Version: 6.00 Build 0)  -->
<svg version="1.1" id="Layer_1" xmlns="http://www.w3.org/2000/svg" xmlns:xlink="http://www.w3.org/1999/xlink" x="0px" y="0px"
	 viewBox="-466 264.5 26 32.5" style="enable-background:new -466 264.5 26 32.5;" xml:space="preserve">
<path d="M-442.1,268.9h-21.7c-0.4,0-0.8,0.3-0.8,0.8v15.7c0,0.4,0.3,0.8,0.8,0.8h21.7c0.4,0,0.8-0.3,0.8-0.8v-15.7
	C-441.4,269.2-441.7,268.9-442.1,268.9z M-442.9,270.4v1.9l-10.1,3.9l-10.1-3.9v-1.9H-442.9z M-463.1,284.6v-10.7l9.8,3.8
	c0.1,0,0.2,0.1,0.3,0.1s0.2,0,0.3-0.1l9.8-3.8v10.7H-463.1z"/>
</svg>
