<?xml version="1.0" encoding="utf-8"?>
<!-- Generator: Adobe Illustrator 19.0.0, SVG Export Plug-In . SVG Version: 6.00 Build 0)  -->
<svg version="1.1" id="Layer_1" xmlns="http://www.w3.org/2000/svg" xmlns:xlink="http://www.w3.org/1999/xlink" x="0px" y="0px"
	 viewBox="-429 218 100 125" style="enable-background:new -429 218 100 125;" xml:space="preserve">
<g>
	<path d="M-355.5,315.3c-14.6,0-34.1-11.1-47.4-27.1c-13.7-16.3-21.3-38.4-18-52.6c0.7-3.2,7.9-9,13.7-13.2c1.3-1.1,3-1.7,4.7-1.7
		c2.1,0,4.1,0.9,5.5,2.5l0.3,0.4l8.4,22.3c1.6,3.5,0.6,8.1-2.3,10.5c-1.8,1.5-4.5,3.8-5.8,4.8c-0.1,1.9,1.4,5.9,5.1,11.1
		c5.3,7.5,12.7,13.8,16.6,14.3l5.6-4.7c1.5-1.3,3.4-1.9,5.4-1.9c1.7,0,3.4,0.5,5,1.3l20.5,12l0.3,0.4c2.5,3,2.2,7.5-0.8,10.1
		c-5.2,5.1-12.1,11.2-15.4,11.4C-354.6,315.3-355.1,315.3-355.5,315.3z M-415.7,236.9c-2.9,12.6,4.2,32.7,16.9,47.8
		c12.2,14.5,30.4,25.1,43.3,25.1c0.3,0,0.7,0,1,0c1.7-0.5,7.6-5.5,12-9.9l0.2-0.1c0.7-0.6,0.8-1.5,0.4-2.2l-19.5-11.4
		c-0.7-0.4-1.6-0.6-2.3-0.6c-0.5,0-1.3,0.1-1.9,0.6l-7,5.9l-0.8,0.1c-0.3,0-0.6,0.1-0.9,0.1h0c-6.6,0-15.7-8.6-21.4-16.6
		c-2.9-4-7.5-11.6-5.7-16.7c0.3-0.8,0.3-0.8,7.3-6.7c1-0.8,1.3-2.9,0.8-4.1l-0.1-0.2l-8.1-21.4c-0.4-0.3-0.8-0.3-1.1-0.3
		c-0.4,0-0.9,0.2-1.2,0.5l-0.1,0.1C-409,230.4-414.9,235.4-415.7,236.9z"/>
</g>
</svg>
